<?xml version="1.0" encoding="utf-8"?>
<!-- Generator: Adobe Illustrator 25.1.0, SVG Export Plug-In . SVG Version: 6.00 Build 0)  -->
<svg version="1.1" id="Layer_1" xmlns="http://www.w3.org/2000/svg" xmlns:xlink="http://www.w3.org/1999/xlink" x="0px" y="0px"
	 viewBox="0 0 218 46" style="enable-background:new 0 0 218 46;" xml:space="preserve">
<style type="text/css">
	.st0{fill:url(#SVGID_1_);}
	.st1{fill:url(#SVGID_2_);}
	.st2{fill:url(#SVGID_3_);}
	.st3{fill:url(#SVGID_4_);}
	.st4{fill:url(#SVGID_5_);}
	.st5{fill:url(#SVGID_6_);}
</style>
<g>
	<linearGradient id="SVGID_1_" gradientUnits="userSpaceOnUse" x1="19.0396" y1="39.7562" x2="19.0396" y2="10.8172">
		<stop  offset="7.347284e-02" style="stop-color:#F19005"/>
		<stop  offset="1" style="stop-color:#F9C803"/>
	</linearGradient>
	<path class="st0" d="M6.6,14.3c0-1.9,1.5-3.5,3.4-3.5c2,0,3.4,1.5,3.4,3.5v7.8h11.1v-7.8c0-1.9,1.5-3.5,3.4-3.5
		c1.9,0,3.5,1.6,3.5,3.5v21.8c0,2-1.5,3.6-3.5,3.6c-1.8,0-3.4-1.7-3.4-3.6v-7.6H13.5v7.7c0,2-1.5,3.5-3.4,3.5
		c-1.8,0-3.4-1.6-3.4-3.5V14.3z"/>
	<linearGradient id="SVGID_2_" gradientUnits="userSpaceOnUse" x1="44.7542" y1="39.8372" x2="44.7542" y2="17.3926">
		<stop  offset="7.347284e-02" style="stop-color:#F19005"/>
		<stop  offset="1" style="stop-color:#F9C803"/>
	</linearGradient>
	<path class="st1" d="M35.1,21c0-2.1,1.2-3.6,3.2-3.6c1.9,0,3.5,1.6,3.5,3.6v9.4c0,1.9,1.2,2.9,3,2.9c1.2,0,2.2-0.2,3-0.8V20.9
		c0-1.9,1.4-3.5,3.3-3.5c1.9,0,3.4,1.5,3.4,3.5v14.4c0,1-0.4,1.7-1.1,2.3c-1.6,1.1-4.8,2.2-8.7,2.2c-6.2,0-9.5-3.2-9.5-9.2V21z"/>
	<linearGradient id="SVGID_3_" gradientUnits="userSpaceOnUse" x1="67.5503" y1="39.9592" x2="67.5503" y2="10.2491">
		<stop  offset="7.347284e-02" style="stop-color:#F19005"/>
		<stop  offset="1" style="stop-color:#F9C803"/>
	</linearGradient>
	<path class="st2" d="M66.7,17.1c1.5,0,2.9,0.3,4.1,0.8v-4.3c0-1.9,1.5-3.4,3.4-3.4c1.9,0,3.4,1.5,3.4,3.4v21.5
		c0,0.9-0.4,1.7-1.1,2.2c-2.4,1.7-5.4,2.6-8.8,2.6c-2.8,0-5.1-0.8-6.9-2.4c-1.8-1.6-2.8-3.7-3-6.2c-0.2-2.2-0.2-4.1,0-5.8
		C58.1,20.4,61.4,17.1,66.7,17.1z M67.8,33.4c1.1,0,2.5-0.5,3.1-1v-8c-0.9-0.6-2-0.9-3.4-0.9c-2,0-3.1,1.1-3.2,3.2
		c-0.1,1.1-0.1,2.2,0,3.4C64.4,32.2,65.7,33.4,67.8,33.4z"/>
	<linearGradient id="SVGID_4_" gradientUnits="userSpaceOnUse" x1="90.7276" y1="39.9592" x2="90.7276" y2="10.2491">
		<stop  offset="7.347284e-02" style="stop-color:#F19005"/>
		<stop  offset="1" style="stop-color:#F9C803"/>
	</linearGradient>
	<path class="st3" d="M89.9,17.1c1.5,0,2.9,0.3,4.1,0.8v-4.3c0-1.9,1.5-3.4,3.4-3.4c1.9,0,3.4,1.5,3.4,3.4v21.5
		c0,0.9-0.4,1.7-1.1,2.2c-2.4,1.7-5.4,2.6-8.8,2.6c-2.8,0-5.1-0.8-6.9-2.4c-1.8-1.6-2.8-3.7-3-6.2c-0.2-2.2-0.2-4.1,0-5.8
		C81.3,20.4,84.5,17.1,89.9,17.1z M90.9,33.4c1.1,0,2.5-0.5,3.1-1v-8c-0.9-0.6-2-0.9-3.4-0.9c-2,0-3.1,1.1-3.2,3.2
		c-0.1,1.1-0.1,2.2,0,3.4C87.6,32.2,88.8,33.4,90.9,33.4z"/>
	<linearGradient id="SVGID_5_" gradientUnits="userSpaceOnUse" x1="107.6087" y1="39.797" x2="107.6087" y2="10.3301">
		<stop  offset="7.347284e-02" style="stop-color:#F19005"/>
		<stop  offset="1" style="stop-color:#F9C803"/>
	</linearGradient>
	<path class="st4" d="M111,13.8v22.5c0,1.9-1.4,3.4-3.4,3.4c-1.8,0-3.3-1.5-3.3-3.4V13.8c0-1.9,1.4-3.5,3.3-3.5
		C109.4,10.3,111,11.9,111,13.8z"/>
	<linearGradient id="SVGID_6_" gradientUnits="userSpaceOnUse" x1="123.9858" y1="39.9592" x2="123.9858" y2="17.1488">
		<stop  offset="7.347284e-02" style="stop-color:#F19005"/>
		<stop  offset="1" style="stop-color:#F9C803"/>
	</linearGradient>
	<path class="st5" d="M133.8,27.8c0,1.8-1,3.1-3,3.1l-10.2,0v0.2c0,1.9,1.7,3,4,3c1.2,0,2.5-0.3,4-1c1.2-0.5,2.2-0.5,3,0.1
		c0.9,0.6,1.3,1.4,1.3,2.4c0,1.1-0.6,2.1-1.9,2.8c-1.6,0.9-3.8,1.4-6.6,1.4c-2.8,0-5.1-0.8-6.9-2.4c-1.8-1.6-2.9-3.7-3.1-6.2
		c-0.2-2-0.2-3.9,0-5.5c0.2-2.6,1.3-4.8,3-6.4c1.8-1.6,4.1-2.4,6.8-2.4c2.9,0,5.2,0.9,7,2.6c1.8,1.7,2.7,4.1,2.7,7.1V27.8z
		 M127.4,26.6c0.3,0,0.4-0.2,0.4-0.5c0-2.1-1.3-3.6-3.5-3.6c-2.4,0-3.7,1.6-3.7,4.1H127.4z"/>
	<path d="M140.2,15.4c0-2.6,1.8-4.6,4.7-4.6h12.6c1.8,0,3.3,1.3,3.3,3.1c0,1.7-1.5,3.2-3.3,3.2h-10.5v5.8h9.5c1.8,0,3.3,1.4,3.3,3.2
		c0,1.7-1.5,3.2-3.3,3.2h-9.5v6.9c0,2-1.5,3.5-3.5,3.5c-1.8,0-3.4-1.6-3.4-3.5V15.4z"/>
	<path d="M176.3,4.2c-0.6-0.6-1.4-0.9-2.2-0.9c-1,0-2,0.6-2.8,1.5c-1.4,1.7-1.5,4.1-0.2,5.5c0.4,0.4,0.9,0.7,1.5,0.8
		c0.2,0,0.4,0.1,0.6,0.1c0.2,0,0.3,0,0.5,0c0.9-0.1,1.8-0.6,2.5-1.4c0.7-0.8,1.1-1.8,1.1-2.7C177.3,5.8,177,4.8,176.3,4.2z
		 M175.3,4.8c0.3,0.1,0.4,0.4,0.5,0.8c0.1,0.5-0.1,1.1-0.4,1.7c-0.4,0.7-0.9,1.4-1.5,1.8c-0.6,0.4-1.2,0.6-1.6,0.4
		c-0.3-0.1-0.6-0.3-0.6-0.8c-0.1-1.1,0.8-2.7,2-3.6l0,0C174.3,4.7,174.9,4.6,175.3,4.8z"/>
	<path d="M170.4,20.8v15.5c0,1.9-1.5,3.4-3.4,3.4c-1.8,0-3.3-1.5-3.3-3.4V20.8c0-1.9,1.4-3.4,3.3-3.4
		C168.9,17.4,170.4,18.9,170.4,20.8z"/>
	<path d="M184.8,26.1c4.4,1,6.5,3.1,6.5,6.8c0,2.2-0.9,3.9-2.6,5.2c-1.7,1.3-3.8,1.9-6.3,1.9c-3.4,0-6-0.8-8-2.4
		c-1.2-1-1.4-2.9-0.6-4.1c1-1.3,2.6-1.6,4.3-0.6c1.3,0.9,2.8,1.3,4.4,1.3c1.6,0,2.4-0.4,2.4-1.3c0-0.6-0.6-1.1-1.9-1.3
		c-1.2-0.2-2.2-0.5-3-0.7c-3.5-0.9-6-3-6-6.6c0-2.2,0.9-3.9,2.6-5.2c1.7-1.3,3.8-1.9,6.4-1.9c2.6,0,5.2,0.8,6.7,2
		c1.3,1.1,1.3,3.2,0.4,4.2c-0.9,1.1-2.7,1.3-4.3,0.4c-1-0.5-2.1-0.8-3.2-0.8c-1.5,0-2.2,0.4-2.2,1.2c0,0.6,0.7,1,2,1.3L184.8,26.1z"
		/>
	<path d="M200.3,18.2c1.1-0.7,2.5-1,4.3-1c5.4,0,8.4,3.2,8.4,9.2v9.9c0,2-1.4,3.5-3.4,3.5c-1.8,0-3.3-1.5-3.3-3.5v-9.6
		c0-1.9-1.2-3-2.9-3c-1.2,0-2.2,0.3-3.1,1v11.6c0,1.9-1.4,3.4-3.3,3.4c-1.8,0-3.4-1.5-3.4-3.4V13.7c0-2,1.4-3.5,3.3-3.5
		c1.9,0,3.4,1.5,3.4,3.5V18.2z"/>
	<path d="M167.5,16.4c-0.1,0-0.3,0-0.4,0c-1.7-0.2-2.9-1.9-2.6-3.7v0c0.3-1.8,1.8-3.1,3.6-2.8c1.7,0.2,2.9,1.9,2.6,3.7
		c-0.1,0.9-0.6,1.6-1.2,2.2C168.9,16.1,168.2,16.4,167.5,16.4z M166.4,12.5c-0.4,1-0.2,2,0.4,2.3c0.3,0.1,0.6,0.1,1-0.1
		c0.4-0.2,0.7-0.6,0.9-1.1c0.4-0.9,0.2-1.9-0.5-2.2C167.6,11,166.8,11.5,166.4,12.5L166.4,12.5z"/>
</g>
</svg>
